<?xml version="1.0" encoding="utf-8"?>
<!-- Generator: Adobe Illustrator 23.0.3, SVG Export Plug-In . SVG Version: 6.00 Build 0)  -->
<svg version="1.1" id="Layer_1" xmlns="http://www.w3.org/2000/svg" xmlns:xlink="http://www.w3.org/1999/xlink" x="0px" y="0px"
	 viewBox="0 0 425.5 269.9" style="enable-background:new 0 0 425.5 269.9;" xml:space="preserve">
<style type="text/css">
	.st0{fill-rule:evenodd;clip-rule:evenodd;fill:#B1DEE4;}
	.st1{fill-rule:evenodd;clip-rule:evenodd;fill:#49C0D8;}
	.st2{fill-rule:evenodd;clip-rule:evenodd;fill:#1DAFC8;}
	.st3{fill-rule:evenodd;clip-rule:evenodd;fill:#019BC1;}
	.st4{fill-rule:evenodd;clip-rule:evenodd;fill:#93D7EA;}
	.st5{fill:#1A1A1A;}
</style>
<g id="Guias_para_prancheta">
</g>
<g id="Camada_1">
	<path class="st0" d="M209.7,175.4c91.7,0,166.4-8.4,166.4-18.7S301.3,138,209.7,138c-91.7,0-166.4,8.4-166.4,18.7
		C43.3,167.1,118,175.4,209.7,175.4z"/>
	<polygon class="st1" points="168.9,110.3 137.8,45 149.8,111.1 	"/>
	<polygon class="st2" points="152.9,158.6 72.1,158.6 149.8,111.1 	"/>
	<polygon class="st2" points="279.4,158.6 279.4,136.5 168.9,110.3 152.9,158.6 	"/>
	<polygon class="st3" points="279.4,158.6 279.4,136.5 318.8,83.4 338.3,158.6 	"/>
	<polygon class="st4" points="149.8,111.1 137.8,45 72,158.6 	"/>
	<polygon class="st4" points="279.4,136.5 214.6,8.2 168.9,110.3 	"/>
	<polygon class="st1" points="318.8,83.4 214.6,8.2 279.4,136.5 	"/>
	<polygon class="st3" points="168.9,110.3 149.8,111.1 152.9,158.6 	"/>
	<g>
		<path class="st5" d="M10.3,199h10.8v64.2H10.3V199z"/>
		<path class="st5" d="M68.3,253.4c3.7,0,7-0.6,9.6-1.9c2.7-1.3,5.5-3.3,8.5-6l7,7.2c-6.8,7.5-15.1,11.3-24.8,11.3
			s-17.8-3.1-24.2-9.4c-6.4-6.2-9.6-14.2-9.6-23.7c0-9.6,3.3-17.5,9.8-23.9s14.8-9.6,24.7-9.6c10,0,18.3,3.7,25,11l-6.9,7.5
			c-3.1-2.9-6-5-8.7-6.2s-5.9-1.7-9.6-1.7c-6.5,0-11.9,2.1-16.4,6.3c-4.4,4.2-6.6,9.6-6.6,16.1s2.2,12,6.6,16.4
			C57.1,251.3,62.3,253.4,68.3,253.4z"/>
		<path class="st5" d="M151.8,199v10.2h-34.3v17h30.8v9.6h-30.8V253h35.4v10.2h-46.2V199H151.8z"/>
		<path class="st5" d="M194.9,263.3h-28.1V199h25c4.3,0,8.1,0.5,11.3,1.6c3.2,1,5.5,2.5,7,4.2c2.9,3.3,4.4,7,4.4,11.2
			c0,5-1.6,8.8-4.8,11.2c-1.2,0.9-2,1.4-2.4,1.6c-0.4,0.2-1.2,0.6-2.3,1.1c4,0.9,7.2,2.7,9.5,5.4c2.4,2.7,3.5,6.1,3.5,10.2
			c0,4.5-1.5,8.4-4.6,11.9C209.8,261.3,203.6,263.3,194.9,263.3z M177.6,225.7h13.8c7.8,0,11.8-2.7,11.8-8c0-3.1-1-5.3-2.8-6.6
			c-1.9-1.3-4.8-2-8.8-2h-13.9v16.6H177.6z M177.6,253.3h17c4,0,7-0.6,9.1-1.9c2.1-1.3,3.2-3.6,3.2-7.1c0-5.7-4.6-8.5-13.7-8.5
			h-15.6V253.3z"/>
		<path class="st5" d="M276.8,199v10.2h-34.3v17h30.8v9.6h-30.8V253h35.4v10.2h-46.2V199H276.8z"/>
		<path class="st5" d="M343,219.9c0,10.6-4.6,17.3-13.9,20l16.8,23.3h-13.8l-15.3-21.6h-14.2v21.6h-10.8V199h23.9
			c9.8,0,16.8,1.7,21,5C340.9,207.3,343,212.6,343,219.9z M328.6,229c2.2-1.9,3.3-4.9,3.3-9.1c0-4.2-1.1-7.1-3.4-8.6
			c-2.3-1.6-6.3-2.3-12.1-2.3h-13.8v23h13.5C322.2,231.8,326.4,230.9,328.6,229z"/>
		<path class="st5" d="M403.1,232H414v22c-6.1,6.7-14.7,10-26,10c-9.5,0-17.4-3.1-23.8-9.4c-6.4-6.2-9.6-14.2-9.6-23.7
			c0-9.6,3.3-17.5,9.8-23.9s14.4-9.6,23.7-9.6c9.3,0,16.9,2.7,23.1,8.1l-5.8,8.3c-2.5-2.1-5-3.6-7.6-4.5c-2.5-0.8-5.5-1.2-8.9-1.2
			c-6.5,0-11.9,2.1-16.4,6.3c-4.4,4.2-6.6,9.7-6.6,16.5s2.1,12.3,6.4,16.5c4.3,4.1,9.5,6.2,15.6,6.2s11.2-1.3,15.3-4V232H403.1z"/>
	</g>
</g>
</svg>
